 <svg version="1.0" xmlns="http://www.w3.org/2000/svg"  width="50.000000pt" height="50.000000pt" viewBox="0 0 50.000000 50.000000"  preserveAspectRatio="xMidYMid meet">  <g transform="translate(0.000000,50.000000) scale(0.100000,-0.100000)" fill="#000000" stroke="none"> <path d="M184 472 c-94 -2 -104 -5 -128 -29 -26 -26 -26 -26 -26 -193 l0 -167 26 -27 27 -26 167 0 c166 0 167 0 193 26 24 24 26 33 29 131 3 109 -2 137 -23 116 -6 -6 -10 -35 -7 -72 1 -34 0 -61 -4 -61 -5 0 -8 3 -8 8 -1 16 -86 100 -108 107 -20 6 -32 -1 -69 -40 l-45 -47 -19 21 c-27 29 -63 26 -94 -6 -14 -15 -25 -31 -25 -35 0 -5 -3 -8 -7 -8 -5 0 -6 53 -5 117 5 154 3 152 141 155 83 2 106 6 106 17 0 18 3 17 -121 13z m200 -286 c31 -35 56 -69 56 -75 0 -6 -9 -20 -20 -31 -18 -18 -33 -20 -172 -20 -127 0 -154 3 -170 17 -26 23 -23 39 18 89 42 51 55 54 82 19 11 -14 25 -25 30 -25 6 0 28 20 49 45 20 25 45 45 54 45 9 0 42 -29 73 -64z"/> <path d="M386 473 c-3 -3 -6 -19 -6 -35 0 -24 -4 -28 -30 -28 -20 0 -30 -5 -30 -15 0 -10 10 -15 30 -15 27 0 30 -3 30 -30 0 -20 5 -30 15 -30 10 0 15 10 15 29 0 26 4 30 33 33 17 2 32 8 32 13 0 6 -15 11 -32 13 -29 3 -33 7 -33 32 0 29 -12 45 -24 33z"/> <path d="M107 392 c-35 -38 -10 -92 42 -92 15 0 32 5 39 12 17 17 15 64 -4 82 -21 21 -57 20 -77 -2z m61 -35 c4 -20 -25 -34 -40 -19 -15 15 -1 44 19 40 10 -2 19 -11 21 -21z"/> </g> </svg> 